<mxfile host="app.diagrams.net" modified="2023-11-06T23:46:08.156Z" agent="Mozilla/5.0 (Windows NT 10.0; Win64; x64) AppleWebKit/537.36 (KHTML, like Gecko) Chrome/119.0.0.0 Safari/537.36" etag="VnP5PVzevkwWQqL9GiP9" version="22.0.8" type="google">
  <diagram id="C5RBs43oDa-KdzZeNtuy" name="Page-1">
    <mxGraphModel grid="1" page="0" gridSize="29" guides="1" tooltips="1" connect="1" arrows="0" fold="1" pageScale="1" pageWidth="827" pageHeight="1169" background="#ffffff" math="0" shadow="0">
      <root>
        <mxCell id="WIyWlLk6GJQsqaUBKTNV-0" />
        <mxCell id="WIyWlLk6GJQsqaUBKTNV-1" parent="WIyWlLk6GJQsqaUBKTNV-0" />
        <mxCell id="WIyWlLk6GJQsqaUBKTNV-2" value="" style="rounded=0;html=1;jettySize=auto;orthogonalLoop=1;fontSize=11;endArrow=block;endFill=0;endSize=8;strokeWidth=1;shadow=0;labelBackgroundColor=none;edgeStyle=orthogonalEdgeStyle;" edge="1" parent="WIyWlLk6GJQsqaUBKTNV-1" source="WIyWlLk6GJQsqaUBKTNV-3" target="WIyWlLk6GJQsqaUBKTNV-6">
          <mxGeometry relative="1" as="geometry" />
        </mxCell>
        <mxCell id="WIyWlLk6GJQsqaUBKTNV-3" value="Empresa X" style="rounded=1;whiteSpace=wrap;html=1;fontSize=12;glass=0;strokeWidth=1;shadow=0;" vertex="1" parent="WIyWlLk6GJQsqaUBKTNV-1">
          <mxGeometry x="145" y="80" width="120" height="40" as="geometry" />
        </mxCell>
        <mxCell id="pU7iHR8ecnOz-vQPa0OH-4" style="edgeStyle=orthogonalEdgeStyle;rounded=0;orthogonalLoop=1;jettySize=auto;html=1;entryX=0;entryY=0.5;entryDx=0;entryDy=0;" edge="1" parent="WIyWlLk6GJQsqaUBKTNV-1" source="WIyWlLk6GJQsqaUBKTNV-6" target="WIyWlLk6GJQsqaUBKTNV-7">
          <mxGeometry relative="1" as="geometry" />
        </mxCell>
        <mxCell id="pU7iHR8ecnOz-vQPa0OH-5" style="edgeStyle=orthogonalEdgeStyle;rounded=0;orthogonalLoop=1;jettySize=auto;html=1;entryX=0;entryY=0.5;entryDx=0;entryDy=0;" edge="1" parent="WIyWlLk6GJQsqaUBKTNV-1" source="WIyWlLk6GJQsqaUBKTNV-6" target="pU7iHR8ecnOz-vQPa0OH-3">
          <mxGeometry relative="1" as="geometry" />
        </mxCell>
        <mxCell id="pU7iHR8ecnOz-vQPa0OH-47" style="edgeStyle=orthogonalEdgeStyle;rounded=0;orthogonalLoop=1;jettySize=auto;html=1;entryX=0.5;entryY=0;entryDx=0;entryDy=0;" edge="1" parent="WIyWlLk6GJQsqaUBKTNV-1" source="WIyWlLk6GJQsqaUBKTNV-6" target="pU7iHR8ecnOz-vQPa0OH-23">
          <mxGeometry relative="1" as="geometry" />
        </mxCell>
        <mxCell id="WIyWlLk6GJQsqaUBKTNV-6" value="&lt;br&gt;Register + Login Empresarial" style="rhombus;whiteSpace=wrap;html=1;shadow=0;fontFamily=Helvetica;fontSize=12;align=center;strokeWidth=1;spacing=6;spacingTop=-4;" vertex="1" parent="WIyWlLk6GJQsqaUBKTNV-1">
          <mxGeometry x="140" y="160" width="130" height="100" as="geometry" />
        </mxCell>
        <mxCell id="WIyWlLk6GJQsqaUBKTNV-7" value="Manager Account&lt;br&gt;(responsável pela conta do estabelecimento)" style="rounded=1;whiteSpace=wrap;html=1;fontSize=12;glass=0;strokeWidth=1;shadow=0;" vertex="1" parent="WIyWlLk6GJQsqaUBKTNV-1">
          <mxGeometry x="320" y="230" width="130" height="60" as="geometry" />
        </mxCell>
        <mxCell id="pU7iHR8ecnOz-vQPa0OH-7" style="edgeStyle=orthogonalEdgeStyle;rounded=0;orthogonalLoop=1;jettySize=auto;html=1;exitX=1;exitY=0.5;exitDx=0;exitDy=0;entryX=0;entryY=0.5;entryDx=0;entryDy=0;" edge="1" parent="WIyWlLk6GJQsqaUBKTNV-1" source="WIyWlLk6GJQsqaUBKTNV-10" target="pU7iHR8ecnOz-vQPa0OH-6">
          <mxGeometry relative="1" as="geometry" />
        </mxCell>
        <mxCell id="WIyWlLk6GJQsqaUBKTNV-10" value="Status do&lt;br&gt;&amp;nbsp;Restaurante" style="rhombus;whiteSpace=wrap;html=1;shadow=0;fontFamily=Helvetica;fontSize=12;align=center;strokeWidth=1;spacing=6;spacingTop=-4;" vertex="1" parent="WIyWlLk6GJQsqaUBKTNV-1">
          <mxGeometry x="140" y="650" width="130" height="105" as="geometry" />
        </mxCell>
        <mxCell id="pU7iHR8ecnOz-vQPa0OH-1" value="GESTÃO DE EMPRESA" style="rounded=0;whiteSpace=wrap;html=1;" vertex="1" parent="WIyWlLk6GJQsqaUBKTNV-1">
          <mxGeometry x="200" y="10" width="430" height="40" as="geometry" />
        </mxCell>
        <mxCell id="pU7iHR8ecnOz-vQPa0OH-3" value="Email do estabelecimento mais a senha" style="rounded=1;whiteSpace=wrap;html=1;fontSize=12;glass=0;strokeWidth=1;shadow=0;" vertex="1" parent="WIyWlLk6GJQsqaUBKTNV-1">
          <mxGeometry x="320" y="140" width="130" height="60" as="geometry" />
        </mxCell>
        <mxCell id="pU7iHR8ecnOz-vQPa0OH-6" value="Disponibilidade de Venda: Disponível ou Indisponível." style="rounded=1;whiteSpace=wrap;html=1;fontSize=12;glass=0;strokeWidth=1;shadow=0;" vertex="1" parent="WIyWlLk6GJQsqaUBKTNV-1">
          <mxGeometry x="330" y="672.5" width="130" height="60" as="geometry" />
        </mxCell>
        <mxCell id="pU7iHR8ecnOz-vQPa0OH-26" value="" style="edgeStyle=orthogonalEdgeStyle;rounded=0;orthogonalLoop=1;jettySize=auto;html=1;" edge="1" parent="WIyWlLk6GJQsqaUBKTNV-1" source="pU7iHR8ecnOz-vQPa0OH-21" target="pU7iHR8ecnOz-vQPa0OH-22">
          <mxGeometry relative="1" as="geometry" />
        </mxCell>
        <mxCell id="pU7iHR8ecnOz-vQPa0OH-49" style="edgeStyle=orthogonalEdgeStyle;rounded=0;orthogonalLoop=1;jettySize=auto;html=1;entryX=0.5;entryY=0;entryDx=0;entryDy=0;" edge="1" parent="WIyWlLk6GJQsqaUBKTNV-1" source="pU7iHR8ecnOz-vQPa0OH-21" target="WIyWlLk6GJQsqaUBKTNV-10">
          <mxGeometry relative="1" as="geometry" />
        </mxCell>
        <mxCell id="pU7iHR8ecnOz-vQPa0OH-21" value="Perfil" style="rhombus;whiteSpace=wrap;html=1;shadow=0;fontFamily=Helvetica;fontSize=12;align=center;strokeWidth=1;spacing=6;spacingTop=-4;" vertex="1" parent="WIyWlLk6GJQsqaUBKTNV-1">
          <mxGeometry x="140" y="500" width="130" height="100" as="geometry" />
        </mxCell>
        <mxCell id="pU7iHR8ecnOz-vQPa0OH-22" value="Bio do restaurante&amp;nbsp;&lt;br&gt;(Nome, endereço, contacto, horarios etc..)" style="rounded=1;whiteSpace=wrap;html=1;fontSize=12;glass=0;strokeWidth=1;shadow=0;" vertex="1" parent="WIyWlLk6GJQsqaUBKTNV-1">
          <mxGeometry x="322.5" y="514.5" width="125" height="70" as="geometry" />
        </mxCell>
        <mxCell id="pU7iHR8ecnOz-vQPa0OH-44" value="" style="edgeStyle=orthogonalEdgeStyle;rounded=0;orthogonalLoop=1;jettySize=auto;html=1;" edge="1" parent="WIyWlLk6GJQsqaUBKTNV-1" source="pU7iHR8ecnOz-vQPa0OH-23" target="pU7iHR8ecnOz-vQPa0OH-37">
          <mxGeometry relative="1" as="geometry" />
        </mxCell>
        <mxCell id="pU7iHR8ecnOz-vQPa0OH-45" style="edgeStyle=orthogonalEdgeStyle;rounded=0;orthogonalLoop=1;jettySize=auto;html=1;entryX=0;entryY=0.5;entryDx=0;entryDy=0;" edge="1" parent="WIyWlLk6GJQsqaUBKTNV-1" source="pU7iHR8ecnOz-vQPa0OH-23" target="pU7iHR8ecnOz-vQPa0OH-36">
          <mxGeometry relative="1" as="geometry" />
        </mxCell>
        <mxCell id="pU7iHR8ecnOz-vQPa0OH-48" style="edgeStyle=orthogonalEdgeStyle;rounded=0;orthogonalLoop=1;jettySize=auto;html=1;entryX=0.5;entryY=0;entryDx=0;entryDy=0;" edge="1" parent="WIyWlLk6GJQsqaUBKTNV-1" source="pU7iHR8ecnOz-vQPa0OH-23" target="pU7iHR8ecnOz-vQPa0OH-21">
          <mxGeometry relative="1" as="geometry" />
        </mxCell>
        <mxCell id="pU7iHR8ecnOz-vQPa0OH-23" value="Conta" style="rhombus;whiteSpace=wrap;html=1;shadow=0;fontFamily=Helvetica;fontSize=12;align=center;strokeWidth=1;spacing=6;spacingTop=-4;" vertex="1" parent="WIyWlLk6GJQsqaUBKTNV-1">
          <mxGeometry x="140" y="340" width="130" height="100" as="geometry" />
        </mxCell>
        <mxCell id="pU7iHR8ecnOz-vQPa0OH-35" style="edgeStyle=orthogonalEdgeStyle;rounded=0;orthogonalLoop=1;jettySize=auto;html=1;exitX=0.5;exitY=1;exitDx=0;exitDy=0;" edge="1" parent="WIyWlLk6GJQsqaUBKTNV-1">
          <mxGeometry relative="1" as="geometry">
            <mxPoint x="375" y="390" as="sourcePoint" />
            <mxPoint x="375" y="390" as="targetPoint" />
          </mxGeometry>
        </mxCell>
        <mxCell id="pU7iHR8ecnOz-vQPa0OH-51" style="edgeStyle=orthogonalEdgeStyle;rounded=0;orthogonalLoop=1;jettySize=auto;html=1;" edge="1" parent="WIyWlLk6GJQsqaUBKTNV-1" source="pU7iHR8ecnOz-vQPa0OH-36" target="pU7iHR8ecnOz-vQPa0OH-42">
          <mxGeometry relative="1" as="geometry" />
        </mxCell>
        <mxCell id="pU7iHR8ecnOz-vQPa0OH-36" value="Histórico de Vendas&lt;br&gt;&amp;nbsp;" style="rounded=1;whiteSpace=wrap;html=1;fontSize=12;glass=0;strokeWidth=1;shadow=0;" vertex="1" parent="WIyWlLk6GJQsqaUBKTNV-1">
          <mxGeometry x="322.5" y="410" width="120" height="60" as="geometry" />
        </mxCell>
        <mxCell id="pU7iHR8ecnOz-vQPa0OH-37" value="Request Account Deletion&lt;br&gt;(acesso a encerrar conta)" style="rounded=1;whiteSpace=wrap;html=1;fontSize=12;glass=0;strokeWidth=1;shadow=0;" vertex="1" parent="WIyWlLk6GJQsqaUBKTNV-1">
          <mxGeometry x="320" y="320" width="130" height="60" as="geometry" />
        </mxCell>
        <mxCell id="pU7iHR8ecnOz-vQPa0OH-40" value="&lt;h1&gt;&lt;br&gt;&lt;/h1&gt;" style="text;html=1;strokeColor=none;fillColor=none;spacing=5;spacingTop=-20;whiteSpace=wrap;overflow=hidden;rounded=0;" vertex="1" parent="WIyWlLk6GJQsqaUBKTNV-1">
          <mxGeometry x="480" y="380" width="330" height="120" as="geometry" />
        </mxCell>
        <mxCell id="pU7iHR8ecnOz-vQPa0OH-42" value="Monitorar Vendas:&lt;br&gt;Qual prato vende mais? Qual parto vende menos? Qual é a rentabilidade do Restaurante ao fim do mês?" style="ellipse;whiteSpace=wrap;html=1;" vertex="1" parent="WIyWlLk6GJQsqaUBKTNV-1">
          <mxGeometry x="510" y="380" width="170" height="120" as="geometry" />
        </mxCell>
      </root>
    </mxGraphModel>
  </diagram>
</mxfile>
